<mxfile host="app.diagrams.net" modified="2024-04-22T11:11:13.718Z" agent="Mozilla/5.0 (Windows NT 10.0; Win64; x64) AppleWebKit/537.36 (KHTML, like Gecko) Chrome/123.0.0.0 Safari/537.36" etag="jI6w0gD6wNWrWLw5khM1" version="24.2.7" type="github">
  <diagram name="Page-1" id="uhlQ-8uoMqtSZ7CRh8Yi">
    <mxGraphModel dx="3447" dy="1487" grid="1" gridSize="10" guides="1" tooltips="1" connect="1" arrows="1" fold="1" page="1" pageScale="1" pageWidth="827" pageHeight="1169" math="0" shadow="0">
      <root>
        <mxCell id="0" />
        <mxCell id="1" parent="0" />
        <mxCell id="O7IFGHpvtoWiRO6Gz_E2-1" value="" style="rounded=1;whiteSpace=wrap;html=1;" vertex="1" parent="1">
          <mxGeometry x="286" y="30" width="210" height="60" as="geometry" />
        </mxCell>
        <mxCell id="O7IFGHpvtoWiRO6Gz_E2-2" value="&lt;b&gt;Gathering the Data&lt;/b&gt;" style="text;html=1;align=center;verticalAlign=middle;whiteSpace=wrap;rounded=0;" vertex="1" parent="1">
          <mxGeometry x="330" y="45" width="116" height="30" as="geometry" />
        </mxCell>
        <mxCell id="O7IFGHpvtoWiRO6Gz_E2-3" value="" style="rounded=1;whiteSpace=wrap;html=1;" vertex="1" parent="1">
          <mxGeometry x="120" y="850" width="120" height="60" as="geometry" />
        </mxCell>
        <mxCell id="O7IFGHpvtoWiRO6Gz_E2-4" value="" style="rounded=1;whiteSpace=wrap;html=1;" vertex="1" parent="1">
          <mxGeometry x="250" y="440" width="290" height="60" as="geometry" />
        </mxCell>
        <mxCell id="O7IFGHpvtoWiRO6Gz_E2-5" value="" style="rounded=1;whiteSpace=wrap;html=1;" vertex="1" parent="1">
          <mxGeometry x="190" y="140" width="410" height="250" as="geometry" />
        </mxCell>
        <mxCell id="O7IFGHpvtoWiRO6Gz_E2-6" value="" style="rounded=1;whiteSpace=wrap;html=1;" vertex="1" parent="1">
          <mxGeometry x="440" y="850" width="120" height="60" as="geometry" />
        </mxCell>
        <mxCell id="O7IFGHpvtoWiRO6Gz_E2-7" value="" style="rounded=1;whiteSpace=wrap;html=1;" vertex="1" parent="1">
          <mxGeometry x="200" y="680" width="390" height="60" as="geometry" />
        </mxCell>
        <mxCell id="O7IFGHpvtoWiRO6Gz_E2-8" value="" style="rounded=1;whiteSpace=wrap;html=1;" vertex="1" parent="1">
          <mxGeometry x="200" y="555" width="390" height="60" as="geometry" />
        </mxCell>
        <mxCell id="O7IFGHpvtoWiRO6Gz_E2-9" value="" style="rounded=1;whiteSpace=wrap;html=1;" vertex="1" parent="1">
          <mxGeometry x="273" y="850" width="120" height="60" as="geometry" />
        </mxCell>
        <mxCell id="O7IFGHpvtoWiRO6Gz_E2-10" value="&lt;b&gt;Data Preprocessing&lt;/b&gt;&lt;div&gt;&lt;br&gt;&lt;/div&gt;" style="text;html=1;align=center;verticalAlign=middle;whiteSpace=wrap;rounded=0;" vertex="1" parent="1">
          <mxGeometry x="310" y="150" width="160" height="30" as="geometry" />
        </mxCell>
        <mxCell id="O7IFGHpvtoWiRO6Gz_E2-12" value="" style="rounded=0;whiteSpace=wrap;html=1;" vertex="1" parent="1">
          <mxGeometry x="272" y="190" width="240" height="30" as="geometry" />
        </mxCell>
        <mxCell id="O7IFGHpvtoWiRO6Gz_E2-21" value="" style="edgeStyle=orthogonalEdgeStyle;rounded=0;orthogonalLoop=1;jettySize=auto;html=1;" edge="1" parent="1" source="O7IFGHpvtoWiRO6Gz_E2-13" target="O7IFGHpvtoWiRO6Gz_E2-15">
          <mxGeometry relative="1" as="geometry" />
        </mxCell>
        <mxCell id="O7IFGHpvtoWiRO6Gz_E2-13" value="" style="rounded=0;whiteSpace=wrap;html=1;" vertex="1" parent="1">
          <mxGeometry x="272" y="240" width="240" height="30" as="geometry" />
        </mxCell>
        <mxCell id="O7IFGHpvtoWiRO6Gz_E2-14" value="" style="rounded=0;whiteSpace=wrap;html=1;" vertex="1" parent="1">
          <mxGeometry x="272" y="289" width="240" height="30" as="geometry" />
        </mxCell>
        <mxCell id="O7IFGHpvtoWiRO6Gz_E2-15" value="" style="rounded=0;whiteSpace=wrap;html=1;" vertex="1" parent="1">
          <mxGeometry x="273" y="340" width="240" height="30" as="geometry" />
        </mxCell>
        <mxCell id="O7IFGHpvtoWiRO6Gz_E2-17" value="" style="endArrow=classic;html=1;rounded=0;exitX=0.5;exitY=1;exitDx=0;exitDy=0;entryX=0.5;entryY=0;entryDx=0;entryDy=0;" edge="1" parent="1" source="O7IFGHpvtoWiRO6Gz_E2-12" target="O7IFGHpvtoWiRO6Gz_E2-13">
          <mxGeometry width="50" height="50" relative="1" as="geometry">
            <mxPoint x="389" y="430" as="sourcePoint" />
            <mxPoint x="439" y="380" as="targetPoint" />
            <Array as="points" />
          </mxGeometry>
        </mxCell>
        <mxCell id="O7IFGHpvtoWiRO6Gz_E2-25" value="Removing html strips and noise text" style="text;html=1;align=center;verticalAlign=middle;whiteSpace=wrap;rounded=0;" vertex="1" parent="1">
          <mxGeometry x="285" y="190" width="220" height="30" as="geometry" />
        </mxCell>
        <mxCell id="O7IFGHpvtoWiRO6Gz_E2-26" value="Removing Special Characters" style="text;html=1;align=center;verticalAlign=middle;whiteSpace=wrap;rounded=0;" vertex="1" parent="1">
          <mxGeometry x="285" y="240" width="220" height="30" as="geometry" />
        </mxCell>
        <mxCell id="O7IFGHpvtoWiRO6Gz_E2-28" value="Text Stemming" style="text;html=1;align=center;verticalAlign=middle;whiteSpace=wrap;rounded=0;" vertex="1" parent="1">
          <mxGeometry x="284" y="289" width="220" height="30" as="geometry" />
        </mxCell>
        <mxCell id="O7IFGHpvtoWiRO6Gz_E2-30" value="" style="edgeStyle=orthogonalEdgeStyle;rounded=0;orthogonalLoop=1;jettySize=auto;html=1;" edge="1" parent="1" source="O7IFGHpvtoWiRO6Gz_E2-29" target="O7IFGHpvtoWiRO6Gz_E2-4">
          <mxGeometry relative="1" as="geometry" />
        </mxCell>
        <mxCell id="O7IFGHpvtoWiRO6Gz_E2-29" value="Removing Stopwords" style="text;html=1;align=center;verticalAlign=middle;whiteSpace=wrap;rounded=0;" vertex="1" parent="1">
          <mxGeometry x="285" y="340" width="220" height="30" as="geometry" />
        </mxCell>
        <mxCell id="O7IFGHpvtoWiRO6Gz_E2-32" value="&lt;b&gt;Feature Extraction&lt;/b&gt;&lt;div&gt;&lt;b&gt;(Bag of words)&lt;/b&gt;&lt;/div&gt;" style="text;html=1;align=center;verticalAlign=middle;whiteSpace=wrap;rounded=0;" vertex="1" parent="1">
          <mxGeometry x="335.5" y="455" width="117" height="30" as="geometry" />
        </mxCell>
        <mxCell id="O7IFGHpvtoWiRO6Gz_E2-33" value="" style="rounded=1;whiteSpace=wrap;html=1;" vertex="1" parent="1">
          <mxGeometry x="600" y="850" width="120" height="60" as="geometry" />
        </mxCell>
        <mxCell id="O7IFGHpvtoWiRO6Gz_E2-35" value="" style="endArrow=none;html=1;rounded=1;curved=0;" edge="1" parent="1">
          <mxGeometry width="50" height="50" relative="1" as="geometry">
            <mxPoint x="180" y="800" as="sourcePoint" />
            <mxPoint x="660.6666870117188" y="800" as="targetPoint" />
          </mxGeometry>
        </mxCell>
        <mxCell id="O7IFGHpvtoWiRO6Gz_E2-39" value="" style="endArrow=classic;html=1;rounded=0;entryX=0.5;entryY=0;entryDx=0;entryDy=0;" edge="1" parent="1" target="O7IFGHpvtoWiRO6Gz_E2-3">
          <mxGeometry width="50" height="50" relative="1" as="geometry">
            <mxPoint x="180" y="800" as="sourcePoint" />
            <mxPoint x="350" y="770" as="targetPoint" />
          </mxGeometry>
        </mxCell>
        <mxCell id="O7IFGHpvtoWiRO6Gz_E2-40" value="" style="endArrow=classic;html=1;rounded=0;entryX=0.5;entryY=0;entryDx=0;entryDy=0;" edge="1" parent="1">
          <mxGeometry width="50" height="50" relative="1" as="geometry">
            <mxPoint x="330" y="800" as="sourcePoint" />
            <mxPoint x="330" y="850" as="targetPoint" />
          </mxGeometry>
        </mxCell>
        <mxCell id="O7IFGHpvtoWiRO6Gz_E2-41" value="" style="endArrow=classic;html=1;rounded=1;entryX=0.5;entryY=0;entryDx=0;entryDy=0;curved=0;" edge="1" parent="1" target="O7IFGHpvtoWiRO6Gz_E2-33">
          <mxGeometry width="50" height="50" relative="1" as="geometry">
            <mxPoint x="660" y="800" as="sourcePoint" />
            <mxPoint x="350" y="770" as="targetPoint" />
          </mxGeometry>
        </mxCell>
        <mxCell id="O7IFGHpvtoWiRO6Gz_E2-42" value="" style="endArrow=classic;html=1;rounded=0;entryX=0.5;entryY=0;entryDx=0;entryDy=0;" edge="1" parent="1" target="O7IFGHpvtoWiRO6Gz_E2-6">
          <mxGeometry width="50" height="50" relative="1" as="geometry">
            <mxPoint x="500" y="800" as="sourcePoint" />
            <mxPoint x="420" y="780" as="targetPoint" />
          </mxGeometry>
        </mxCell>
        <mxCell id="O7IFGHpvtoWiRO6Gz_E2-43" value="" style="endArrow=classic;html=1;rounded=0;exitX=0.5;exitY=1;exitDx=0;exitDy=0;" edge="1" parent="1" source="O7IFGHpvtoWiRO6Gz_E2-7">
          <mxGeometry width="50" height="50" relative="1" as="geometry">
            <mxPoint x="320" y="790" as="sourcePoint" />
            <mxPoint x="395" y="800" as="targetPoint" />
          </mxGeometry>
        </mxCell>
        <mxCell id="O7IFGHpvtoWiRO6Gz_E2-44" value="&lt;b&gt;Splitting the data into train and test sets.&lt;/b&gt;" style="text;html=1;align=center;verticalAlign=middle;whiteSpace=wrap;rounded=0;" vertex="1" parent="1">
          <mxGeometry x="280" y="570" width="220" height="30" as="geometry" />
        </mxCell>
        <mxCell id="O7IFGHpvtoWiRO6Gz_E2-45" value="" style="rounded=1;whiteSpace=wrap;html=1;" vertex="1" parent="1">
          <mxGeometry x="248" y="1000" width="340" height="60" as="geometry" />
        </mxCell>
        <mxCell id="O7IFGHpvtoWiRO6Gz_E2-46" value="" style="endArrow=classic;html=1;rounded=0;exitX=0.5;exitY=1;exitDx=0;exitDy=0;entryX=0.25;entryY=0;entryDx=0;entryDy=0;" edge="1" parent="1" source="O7IFGHpvtoWiRO6Gz_E2-9" target="O7IFGHpvtoWiRO6Gz_E2-45">
          <mxGeometry width="50" height="50" relative="1" as="geometry">
            <mxPoint x="290" y="810" as="sourcePoint" />
            <mxPoint x="340" y="760" as="targetPoint" />
          </mxGeometry>
        </mxCell>
        <mxCell id="O7IFGHpvtoWiRO6Gz_E2-48" value="" style="endArrow=classic;html=1;rounded=1;exitX=0.5;exitY=1;exitDx=0;exitDy=0;entryX=0;entryY=0.5;entryDx=0;entryDy=0;curved=0;" edge="1" parent="1" source="O7IFGHpvtoWiRO6Gz_E2-3" target="O7IFGHpvtoWiRO6Gz_E2-45">
          <mxGeometry width="50" height="50" relative="1" as="geometry">
            <mxPoint x="290" y="810" as="sourcePoint" />
            <mxPoint x="340" y="760" as="targetPoint" />
            <Array as="points">
              <mxPoint x="180" y="1030" />
            </Array>
          </mxGeometry>
        </mxCell>
        <mxCell id="O7IFGHpvtoWiRO6Gz_E2-49" value="" style="endArrow=none;html=1;rounded=1;entryX=0.5;entryY=1;entryDx=0;entryDy=0;exitX=1;exitY=0.5;exitDx=0;exitDy=0;curved=0;startArrow=classicThin;startFill=1;endFill=0;" edge="1" parent="1" source="O7IFGHpvtoWiRO6Gz_E2-45" target="O7IFGHpvtoWiRO6Gz_E2-33">
          <mxGeometry width="50" height="50" relative="1" as="geometry">
            <mxPoint x="690" y="890" as="sourcePoint" />
            <mxPoint x="740" y="840" as="targetPoint" />
            <Array as="points">
              <mxPoint x="660" y="1030" />
            </Array>
          </mxGeometry>
        </mxCell>
        <mxCell id="O7IFGHpvtoWiRO6Gz_E2-50" value="" style="endArrow=classic;html=1;rounded=0;exitX=0.5;exitY=1;exitDx=0;exitDy=0;entryX=0.5;entryY=0;entryDx=0;entryDy=0;" edge="1" parent="1" source="O7IFGHpvtoWiRO6Gz_E2-4" target="O7IFGHpvtoWiRO6Gz_E2-8">
          <mxGeometry width="50" height="50" relative="1" as="geometry">
            <mxPoint x="210" y="530" as="sourcePoint" />
            <mxPoint x="260" y="480" as="targetPoint" />
          </mxGeometry>
        </mxCell>
        <mxCell id="O7IFGHpvtoWiRO6Gz_E2-51" value="" style="endArrow=classic;html=1;rounded=0;exitX=0.5;exitY=1;exitDx=0;exitDy=0;entryX=0.5;entryY=0;entryDx=0;entryDy=0;" edge="1" parent="1" source="O7IFGHpvtoWiRO6Gz_E2-8" target="O7IFGHpvtoWiRO6Gz_E2-7">
          <mxGeometry width="50" height="50" relative="1" as="geometry">
            <mxPoint x="340" y="690" as="sourcePoint" />
            <mxPoint x="390" y="640" as="targetPoint" />
          </mxGeometry>
        </mxCell>
        <mxCell id="O7IFGHpvtoWiRO6Gz_E2-52" value="&lt;b&gt;Creating the model using different algorithms&lt;/b&gt;" style="text;html=1;align=center;verticalAlign=middle;whiteSpace=wrap;rounded=0;" vertex="1" parent="1">
          <mxGeometry x="250" y="693" width="280" height="30" as="geometry" />
        </mxCell>
        <mxCell id="O7IFGHpvtoWiRO6Gz_E2-53" value="" style="endArrow=classic;html=1;rounded=0;exitX=0.5;exitY=1;exitDx=0;exitDy=0;entryX=0.742;entryY=-0.002;entryDx=0;entryDy=0;entryPerimeter=0;" edge="1" parent="1" source="O7IFGHpvtoWiRO6Gz_E2-6" target="O7IFGHpvtoWiRO6Gz_E2-45">
          <mxGeometry width="50" height="50" relative="1" as="geometry">
            <mxPoint x="330" y="750" as="sourcePoint" />
            <mxPoint x="380" y="700" as="targetPoint" />
          </mxGeometry>
        </mxCell>
        <mxCell id="O7IFGHpvtoWiRO6Gz_E2-54" value="&lt;b&gt;Finding the best Algorithm&lt;/b&gt;" style="text;html=1;align=center;verticalAlign=middle;whiteSpace=wrap;rounded=0;" vertex="1" parent="1">
          <mxGeometry x="309" y="1019" width="220" height="30" as="geometry" />
        </mxCell>
        <mxCell id="O7IFGHpvtoWiRO6Gz_E2-55" value="&lt;b&gt;Logistic Regression&lt;/b&gt;" style="text;html=1;align=center;verticalAlign=middle;whiteSpace=wrap;rounded=0;" vertex="1" parent="1">
          <mxGeometry x="150" y="865" width="60" height="30" as="geometry" />
        </mxCell>
        <mxCell id="O7IFGHpvtoWiRO6Gz_E2-56" value="&lt;b&gt;Support vector machine&lt;/b&gt;" style="text;html=1;align=center;verticalAlign=middle;whiteSpace=wrap;rounded=0;" vertex="1" parent="1">
          <mxGeometry x="303" y="865" width="60" height="30" as="geometry" />
        </mxCell>
        <mxCell id="O7IFGHpvtoWiRO6Gz_E2-57" value="&lt;b&gt;Naive Bayes&lt;/b&gt;" style="text;html=1;align=center;verticalAlign=middle;whiteSpace=wrap;rounded=0;" vertex="1" parent="1">
          <mxGeometry x="470" y="865" width="60" height="30" as="geometry" />
        </mxCell>
        <mxCell id="O7IFGHpvtoWiRO6Gz_E2-58" value="&lt;b&gt;Decision Tree&lt;/b&gt;" style="text;html=1;align=center;verticalAlign=middle;whiteSpace=wrap;rounded=0;" vertex="1" parent="1">
          <mxGeometry x="630" y="865" width="60" height="30" as="geometry" />
        </mxCell>
        <mxCell id="O7IFGHpvtoWiRO6Gz_E2-59" value="" style="endArrow=none;html=1;rounded=0;entryX=0.5;entryY=1;entryDx=0;entryDy=0;endFill=0;startArrow=classic;startFill=1;" edge="1" parent="1" target="O7IFGHpvtoWiRO6Gz_E2-1">
          <mxGeometry width="50" height="50" relative="1" as="geometry">
            <mxPoint x="391" y="140" as="sourcePoint" />
            <mxPoint x="300" y="230" as="targetPoint" />
          </mxGeometry>
        </mxCell>
      </root>
    </mxGraphModel>
  </diagram>
</mxfile>
